PathFileType	4	(X/Y/Z)	D:\Share\Shared_Data\Ergonomics\Sit To Stand Pertubation\S1\Perturbed_NoHarness.trc
DataRate	CameraRate	NumFrames	NumMarkers	Units	OrigDataRate	OrigDataStartFrame	OrigNumFrames	
100	100	9	18	m	100	2547	171
Frame#	Time	L_ASIS			R_ASIS			R_Pelvis			V_Sacral			L_Pelvis			Clavical			R_Acromium			L_Acromium			Sternum			Torso			R_Thigh_Med			R_Thigh_Lat			R_Thigh			R_Shank_Med			R_Shank_Lat			R_Shank			R_Heel			R_Toe			
		X1	Y1	Z1	X2	Y2	Z2	X3	Y3	Z3	X4	Y4	Z4	X5	Y5	Z5	X6	Y6	Z6	X7	Y7	Z7	X8	Y8	Z8	X9	Y9	Z9	X10	Y10	Z10	X11	Y11	Z11	X12	Y12	Z12	X13	Y13	Z13	X14	Y14	Z14	X15	Y15	Z15	X16	Y16	Z16	X17	Y17	Z17	X18	Y18	Z18	

2547	25.46	0.33428693	0.8440556	-0.10507583	0.22735603	0.84892383	0.12673721	0.2984371	0.84182465	0.10211583	0.12979874	0.83309375	-0.02067111	0.24783794	0.85054779	-0.15850316	0.38905032	1.176327	-0.0069660549	0.33499606	1.2605763	0.13853552	0.29567303	1.2211182	-0.20544351	0.37271204	1.1934237	0.094595055	0.38693265	1.184173	-0.065105637	0.38878348	0.40285205	0.017615179	0.41451321	0.42892953	0.13427687	0.40082767	0.61079773	0.08427597	0.3336666	0.09177935	0.089421112	0.31451358	0.10069941	0.17009692	0.36865518	0.30488428	0.1665406	0.26014902	0.032531422	0.1223078	0.46382349	0.056640526	0.14235255
2548	25.47	0.33768399	0.84913507	-0.10561606	0.23094795	0.85362128	0.12678115	0.29927573	0.84763843	0.10414109	0.13395226	0.83757306	-0.021021713	0.25135353	0.85517285	-0.15935733	0.38834293	1.1823826	-0.0071892548	0.33346387	1.2659479	0.13836888	0.29512711	1.2262302	-0.20555045	0.37190729	1.1992327	0.094397102	0.38640277	1.1901742	-0.065445404	0.38614841	0.40356314	0.018547537	0.4125007	0.4297428	0.13505161	0.40219464	0.61196387	0.084357529	0.33322452	0.092135551	0.089702538	0.31410583	0.10074572	0.17042604	0.36699866	0.3053132	0.16732411	0.26005692	0.032480709	0.12240279	0.46351202	0.056659023	0.14194305
2549	25.48	0.34106641	0.85404584	-0.10611865	0.234435	0.85823895	0.12689653	0.29983173	0.85332513	0.10633401	0.13808142	0.84193976	-0.021346869	0.25483031	0.85963458	-0.16028458	0.38770123	1.1881929	-0.0074192543	0.33201562	1.2710685	0.13820279	0.29459119	1.2311326	-0.20569992	0.37117474	1.2047968	0.09419043	0.38592255	1.1959312	-0.065786606	0.38342752	0.40429984	0.0194765	0.41037018	0.43057159	0.13587492	0.40341925	0.61302759	0.084489029	0.33279306	0.092498184	0.090008743	0.31370068	0.10079118	0.1707774	0.3652778	0.30574899	0.16814607	0.25997009	0.03243956	0.12249835	0.46323172	0.056584297	0.14154887
2550	25.49	0.34443448	0.8587796	-0.10657833	0.23780869	0.86276416	0.1270713	0.30023004	0.85883148	0.10857702	0.14218491	0.84618903	-0.021657663	0.25827267	0.86392529	-0.16127397	0.3871282	1.1937535	-0.0076563082	0.3306564	1.2759351	0.13803795	0.29406116	1.2358141	-0.20588425	0.3705188	1.2101112	0.093976677	0.3854913	1.2014379	-0.066130127	0.38063815	0.40506323	0.020395746	0.40812128	0.43141254	0.13674953	0.40450494	0.6139884	0.0846782	0.33237659	0.092865456	0.090341049	0.31329877	0.10083498	0.17115099	0.36349237	0.30618958	0.1690065	0.25988898	0.032407879	0.12259215	0.46299179	0.05642709	0.14119096
2551	25.5	0.34778796	0.86332782	-0.10699205	0.24106691	0.8671806	0.12728909	0.30062509	0.864099	0.11073415	0.14626083	0.85031354	-0.021964174	0.26168491	0.86803815	-0.16231071	0.38662552	1.1990608	-0.0079007001	0.32939102	1.2805458	0.13787503	0.29353366	1.2402664	-0.20609677	0.36994275	1.215172	0.093757133	0.38510803	1.2066887	-0.066476654	0.377798	0.40585287	0.021302782	0.40575449	0.43226169	0.13767732	0.4054566	0.61484668	0.084932594	0.33197876	0.093235619	0.090699844	0.31289996	0.10087624	0.17154578	0.36164221	0.30663239	0.16990425	0.25981378	0.032384827	0.12268147	0.46279895	0.056199852	0.14088611
2552	25.51	0.3511264	0.86768176	-0.10735916	0.24421486	0.87146783	0.12752941	0.30118979	0.86906787	0.11266141	0.15030656	0.85430426	-0.022274855	0.26507056	0.87196698	-0.1633774	0.38619406	1.2041113	-0.0081526928	0.32822366	1.2849004	0.13771452	0.29300613	1.2444819	-0.20633298	0.36944858	1.2199761	0.0935327	0.38477133	1.2116794	-0.066826729	0.37492465	0.40666623	0.022199429	0.40327124	0.43311435	0.13865918	0.40628015	0.61560339	0.085258774	0.33160211	0.093606972	0.091084335	0.31250369	0.10091405	0.17195972	0.35972742	0.30707486	0.17083691	0.25974463	0.03236882	0.12276334	0.46265668	0.055915771	0.14064626
2553	25.52	0.35444897	0.87183258	-0.10768145	0.24726555	0.87560199	0.12776871	0.30210199	0.87368158	0.11421888	0.15431888	0.85815076	-0.022596106	0.26843262	0.87570593	-0.16445494	0.3858335	1.2089021	-0.0084124775	0.32715753	1.2889991	0.13755656	0.29247623	1.2484563	-0.20659123	0.36903696	1.2245205	0.093303986	0.38447964	1.2164064	-0.067180649	0.37203476	0.40749866	0.023091829	0.40067429	0.43396545	0.13969444	0.40698254	0.61625952	0.08566172	0.33124808	0.093977776	0.091492348	0.3121088	0.10094752	0.17238957	0.35774875	0.30751407	0.17180054	0.25968152	0.032357647	0.12283457	0.46256552	0.055587872	0.14047804
2554	25.53	0.35775467	0.87577173	-0.10796275	0.25023926	0.87955701	0.12798199	0.30352814	0.87789215	0.11528367	0.15829375	0.86184265	-0.022932093	0.27177301	0.87925	-0.16552385	0.38554276	1.2134308	-0.0086801214	0.3261944	1.2928433	0.13740117	0.29194193	1.2521876	-0.20687282	0.36870734	1.2288043	0.09307132	0.38423123	1.2208665	-0.067538422	0.36914313	0.40834354	0.02398987	0.39796823	0.43480939	0.14078064	0.40757123	0.61681671	0.086144081	0.33091711	0.094346352	0.091920227	0.31171399	0.10097572	0.17283089	0.35570801	0.30794714	0.17278961	0.25962457	0.032348686	0.122892	0.46252319	0.055228092	0.14038319
2555	25.54	0.3610423	0.8794906	-0.10820841	0.25316211	0.88330554	0.12814484	0.30560706	0.88166376	0.11576147	0.16222652	0.86536926	-0.023284769	0.2750925	0.88259412	-0.16656517	0.38531964	1.2176952	-0.0089555044	0.32533459	1.2964341	0.13724791	0.29140088	1.2556761	-0.20718192	0.36845786	1.2328267	0.092834908	0.38402426	1.2250582	-0.067899811	0.36626263	0.40919247	0.024906139	0.39515976	0.43564032	0.14191353	0.40805429	0.61727673	0.086705795	0.33060901	0.094710892	0.092362892	0.31131857	0.10099776	0.17327808	0.35360855	0.30837088	0.17379704	0.25957413	0.032339172	0.1229326	0.46252524	0.0548466	0.14035892
